PathFileType	4	(X/Y/Z)	C:\Users\Basilio\Documents\Thesis Gigler\squatting_fais\c3dfiles\076\SLS_back_pre4\markers_experimental.trc
DataRate	CameraRate	NumFrames	NumMarkers	Units	OrigDataRate	OrigDataStartFrame	OrigNumFrames
200.000000	200.000000	4	61	mm	200.000000	0	1814
Frame#	Time	FHD			LBHD			RBHD			C7			T10			CLAV			LSHO			LUUPA			LMUPA			LDUPA			LLEP			LMEP			LRAD			LUL			LRFIN			RSHO			RUPA1			RMUPA			RDUPA			RLEP			RMEP			RRAD			RUL			RUFIN			LASI			RASI			USACR			LSACR			RSACR			LTHI1			LTHI2			LTHI3			LTHI4			LLFC			LMFC			LTIB1			LTIB2			LTIB3			LTIB4			LLMAL			LMMAL			LHEE			LMT1			LMT2			LMT5			RTHI			RTHI2			RTHI3			RTHI4			RLFC			RMFC			RTIB1			RTIB2			RTIB3			RTIB4			RLMAL			RMMAL			RHEE			RMT1			RMT2			RMT5			
		X1	Y1	Z1	X2	Y2	Z2	X3	Y3	Z3	X4	Y4	Z4	X5	Y5	Z5	X6	Y6	Z6	X7	Y7	Z7	X8	Y8	Z8	X9	Y9	Z9	X10	Y10	Z10	X11	Y11	Z11	X12	Y12	Z12	X13	Y13	Z13	X14	Y14	Z14	X15	Y15	Z15	X16	Y16	Z16	X17	Y17	Z17	X18	Y18	Z18	X19	Y19	Z19	X20	Y20	Z20	X21	Y21	Z21	X22	Y22	Z22	X23	Y23	Z23	X24	Y24	Z24	X25	Y25	Z25	X26	Y26	Z26	X27	Y27	Z27	X28	Y28	Z28	X29	Y29	Z29	X30	Y30	Z30	X31	Y31	Z31	X32	Y32	Z32	X33	Y33	Z33	X34	Y34	Z34	X35	Y35	Z35	X36	Y36	Z36	X37	Y37	Z37	X38	Y38	Z38	X39	Y39	Z39	X40	Y40	Z40	X41	Y41	Z41	X42	Y42	Z42	X43	Y43	Z43	X44	Y44	Z44	X45	Y45	Z45	X46	Y46	Z46	X47	Y47	Z47	X48	Y48	Z48	X49	Y49	Z49	X50	Y50	Z50	X51	Y51	Z51	X52	Y52	Z52	X53	Y53	Z53	X54	Y54	Z54	X55	Y55	Z55	X56	Y56	Z56	X57	Y57	Z57	X58	Y58	Z58	X59	Y59	Z59	X60	Y60	Z60	X61	Y61	Z61	

1	0	-161.4188232421875	1634.330810546875	-885.962829589844	-298.2727661132813	1572.445556640625	-992.086608886719	-293.7308959960938	1575.924438476563	-839.6091918945315	-351.2279052734376	1449.846069335938	-914.8603515625002	-373.3083801269532	1129.137817382813	-923.2738037109377	-215.2064208984376	1374.198974609375	-915.4013671875002	-292.4154663085938	1407.445556640625	-1085.383666992188	-314.0058593750001	1263.348754882813	-1220.611572265625	-295.3726501464844	1218.651000976563	-1207.533325195313	-323.4684143066407	1207.699340820313	-1260.85888671875	-336.7007446289063	1159.46923828125	-1290.190307617188	-413.3289794921876	1143.159790039063	-1247.9443359375	-255.1188201904297	1033.680786132813	-1085.957763671875	-303.3787841796876	1010.328247070313	-1103.802978515625	-261.4295349121094	976.793640136719	-1139.106201171875	-291.9284973144532	1396.578369140625	-751.5947875976564	-346.8100891113282	1264.528198242188	-615.5202636718751	-313.4845886230469	1227.057250976563	-610.9920043945314	-357.4220581054688	1207.65380859375	-573.9430541992189	-349.6800537109376	1138.312866210938	-549.7795410156251	-418.1201782226564	1119.975952148438	-605.8104858398439	-300.3492736816407	1003.133239746094	-743.2114257812501	-249.3106231689454	1028.301513671875	-751.4091186523439	-254.493392944336	973.4421386718752	-703.9687500000001	-216.2133331298829	944.817810058594	-1033.978637695313	-204.5807495117188	942.4704589843752	-821.1948852539065	-374.9721374511719	1025.447875976563	-918.184997558594	-384.1421813964845	996.8467407226565	-945.8024902343752	-380.6336669921876	995.8345947265627	-889.559753417969	-309.8457336425782	797.3670043945315	-1096.811157226563	-292.1672058105469	714.5998535156251	-1094.95654296875	-243.5041656494141	711.7243041992189	-1084.274536132813	-327.8254699707032	667.3613281250001	-1081.726928710938	-347.3280029296876	507.4185180664064	-1056.661376953125	-310.3625488281251	496.6036071777345	-943.6171875000002	-316.7960815429688	361.8147888183594	-995.1607055664065	-343.2533569335938	311.7045288085938	-1063.299438476563	-313.4010925292969	313.2344665527344	-1028.422119140625	-325.8368835449219	235.0760345458985	-998.259216308594	-385.5096130371095	109.9976501464844	-1052.604370117188	-354.6006469726563	119.8925857543946	-974.1723632812502	-441.8398742675782	97.01230621337893	-1006.615173339844	-240.2933502197266	53.4623146057129	-993.493835449219	-235.2747955322266	50.71352005004884	-1032.2568359375	-259.9249267578126	44.8051872253418	-1082.53564453125	-315.1155090332032	701.0709228515626	-759.2747192382814	-282.5583190917969	642.2777099609376	-757.1304321289064	-248.3200683593751	642.6639404296876	-762.8046875000001	-314.0724792480469	567.6013183593751	-773.8553466796877	-322.6659545898438	507.274627685547	-780.9359130859377	-284.1656799316407	499.5961914062501	-893.9583740234377	-285.8223266601563	374.7642822265626	-796.5437622070315	-357.3855285644532	295.0054931640626	-779.1897583007815	-310.6136474609376	291.7135009765626	-783.565612792969	-293.8066406250001	245.8179016113282	-815.388122558594	-356.5235900878907	109.0799789428711	-790.6558837890627	-327.8878784179688	119.3503341674805	-871.4748535156252	-410.2757873535157	92.24574279785158	-835.7395629882815	-209.4438781738282	51.67256927490236	-845.5173339843752	-206.2174835205079	51.92130661010744	-800.7772216796877	-238.0030517578126	36.18394088745118	-748.6136474609376	
2	0.005	-161.4902954101563	1634.334838867188	-885.9715576171877	-298.3887939453126	1572.430908203125	-992.1600341796877	-293.7796630859376	1575.936767578125	-839.639343261719	-351.2628173828126	1449.84716796875	-914.820983886719	-373.3651123046876	1129.123046875	-923.297546386719	-215.2731170654297	1374.221069335938	-915.4166259765627	-293.2976989746094	1407.62451171875	-1085.771118164063	-314.0133361816407	1263.374633789063	-1220.617309570313	-295.4324340820313	1218.638793945313	-1207.56005859375	-323.4682312011719	1207.732421875	-1260.863037109375	-336.7480163574219	1159.48779296875	-1290.2060546875	-413.3244934082032	1143.15966796875	-1247.884765625	-255.1617889404297	1033.698120117188	-1085.962524414063	-303.3411560058594	1010.326782226563	-1103.853637695313	-261.5147094726563	976.796813964844	-1139.155029296875	-291.9187316894532	1396.581665039063	-751.5750122070314	-346.8257751464844	1264.504028320313	-615.4880371093751	-313.4785461425782	1227.037109375	-610.9888916015626	-357.4241638183594	1207.628051757813	-573.9454345703126	-349.6605834960938	1138.267944335938	-549.8229980468751	-418.1159667968751	1119.920532226563	-605.7471313476564	-300.3588256835938	1003.158142089844	-743.2201538085939	-249.3174743652344	1028.298095703125	-751.4675903320314	-254.5065307617188	973.440124511719	-704.0109252929689	-216.2526397705079	944.811218261719	-1033.97265625	-204.6450347900391	942.4705200195315	-821.1910400390627	-375.0444946289063	1025.460205078125	-918.1260375976565	-384.2207031250001	996.8299560546877	-945.8071289062502	-380.6911315917969	995.861267089844	-889.5549926757815	-309.8539733886719	797.387634277344	-1096.85546875	-292.1672058105469	714.5998535156251	-1094.95654296875	-243.6044158935547	711.7422485351564	-1084.293090820313	-327.8858947753907	667.3615722656251	-1081.761596679688	-347.3640441894532	507.4259033203126	-1056.690307617188	-310.3666992187501	496.6339721679689	-943.613708496094	-316.8554992675782	361.7958679199219	-995.1904296875002	-343.2574462890626	311.7106628417969	-1063.300537109375	-313.4636230468751	313.2146911621094	-1028.438598632813	-325.8894042968751	235.0420227050782	-998.2655029296877	-385.5141601562501	109.9732055664063	-1052.573608398438	-354.6461486816407	119.8978652954102	-974.1867675781252	-442.2823486328126	97.22869110107425	-1006.744567871094	-240.2257385253907	53.46648025512697	-993.4929199218752	-235.3110351562501	50.66557693481447	-1032.298583984375	-259.9129028320313	44.79077529907227	-1082.532836914063	-315.1663818359376	701.0805053710939	-759.2753906250001	-282.5629272460938	642.2635498046876	-757.1509399414064	-248.3557739257813	642.6741333007814	-762.8409423828126	-314.1326599121094	567.6174926757814	-773.8543701171877	-322.6775817871094	507.2776489257814	-780.919128417969	-284.1656799316407	499.5961914062501	-893.9583740234377	-285.8192749023438	374.7677612304688	-796.5537109375002	-357.3936462402344	295.0029602050782	-779.1682739257815	-310.6057434082032	291.7197570800782	-783.565368652344	-293.8150634765626	245.8061218261719	-815.3829345703127	-356.5143127441407	109.0620727539063	-790.674743652344	-327.8451538085938	119.3865661621094	-871.4644775390627	-410.2984313964845	92.22146606445314	-835.7314453125002	-209.4716339111329	51.64904785156251	-845.5853271484377	-206.2246551513672	51.93101119995119	-800.778747558594	-237.9983825683594	36.19760131835938	-748.6404418945314	
3	0.01	-161.5795288085938	1634.34521484375	-885.945739746094	-298.3277893066407	1572.41650390625	-992.1146240234377	-293.8721923828126	1575.89794921875	-839.6074829101565	-351.3300170898438	1449.85693359375	-914.8618774414065	-373.4097290039063	1129.144287109375	-923.3025512695315	-215.2784729003907	1374.22802734375	-915.4122314453127	-293.3031921386719	1407.639892578125	-1085.746826171875	-313.9696655273438	1263.392700195313	-1220.607543945313	-295.3629455566407	1218.685302734375	-1207.561889648438	-323.4032592773438	1207.71435546875	-1260.895141601563	-336.6958312988282	1159.493530273438	-1290.24755859375	-413.3233032226564	1143.240966796875	-1247.9560546875	-255.1947021484376	1033.711181640625	-1085.977661132813	-303.2843627929688	1010.354675292969	-1103.864868164063	-261.5463867187501	976.797302246094	-1139.179931640625	-292.0039367675782	1396.557861328125	-751.5834350585939	-346.8239135742188	1264.496826171875	-615.4933471679689	-313.4786987304688	1227.037963867188	-611.0124511718751	-357.4172973632813	1207.611328125	-573.9250488281251	-349.6476745605469	1138.222290039063	-549.7873535156251	-418.1221008300782	1119.947998046875	-605.6871337890626	-300.3492736816407	1003.152893066406	-743.2192993164064	-249.321517944336	1028.278442382813	-751.4461669921876	-254.5276641845704	973.4327392578127	-704.0494384765626	-216.304183959961	944.8446044921877	-1034.031372070313	-204.6490936279297	942.4590454101565	-821.2100830078127	-375.0794982910157	1025.442016601563	-918.1849365234377	-384.2291870117189	996.8628540039065	-945.8173828125002	-380.6796875000001	995.814880371094	-889.5556640625002	-309.9218750000001	797.372009277344	-1096.841430664063	-292.2196655273438	714.6332397460939	-1094.94580078125	-243.6217498779297	711.7482910156251	-1084.30908203125	-327.9780578613282	667.0673217773439	-1081.969848632813	-347.3786010742188	507.410125732422	-1056.678955078125	-310.3815917968751	496.6148986816407	-943.5727539062502	-316.8637695312501	361.7984619140626	-995.1548461914065	-343.2785949707032	311.7252807617188	-1063.323364257813	-313.4928894042969	313.2445068359376	-1028.452880859375	-325.8802490234376	235.0662536621094	-998.2507324218752	-385.5104980468751	109.9586181640625	-1052.576538085938	-354.6506347656251	119.8848342895508	-974.186218261719	-441.8410644531251	96.99736022949222	-1006.65625	-240.2327423095704	53.48273086547853	-993.4936523437502	-235.3211517333985	50.67021560668947	-1032.263305664063	-259.8750610351563	44.81454849243165	-1082.552368164063	-315.1441040039063	701.0607299804689	-759.3091430664064	-282.5540466308594	642.2498168945314	-757.1651611328126	-248.3497619628907	642.6994018554689	-762.9145507812501	-314.0986633300782	567.6023559570314	-773.895935058594	-322.6672058105469	507.2527160644532	-780.9287109375002	-284.1964416503907	499.589569091797	-893.9692382812502	-285.8267211914063	374.7541809082032	-796.5584716796877	-357.3648986816407	295.0205993652344	-779.180847167969	-310.6073303222657	291.7135314941407	-783.5766601562502	-293.8035583496094	245.7794036865235	-815.3879394531252	-356.5122375488282	109.0694808959961	-790.638610839844	-327.8807373046876	119.355697631836	-871.4750976562502	-410.2662353515626	92.22914886474611	-835.7151489257815	-209.4436798095704	51.69286346435548	-845.5399169921877	-206.2124023437501	51.93595123291017	-800.773864746094	-238.0038452148438	36.18496322631837	-748.6389160156251	
4	0.015	-161.6297149658203	1634.339111328125	-885.8967895507815	-298.4830627441407	1572.4716796875	-992.0867309570315	-293.9605407714844	1575.915405273438	-839.573425292969	-351.3372802734376	1449.835083007813	-914.7744750976565	-373.4069213867188	1129.126708984375	-923.3041992187502	-215.2650909423829	1374.222045898438	-915.4168090820315	-293.3444824218751	1407.647827148438	-1085.756103515625	-313.9747924804688	1263.401977539063	-1220.609497070313	-295.3934936523438	1218.661865234375	-1207.580200195313	-323.4419860839844	1207.75927734375	-1260.925170898438	-336.6770324707032	1159.534057617188	-1290.262573242188	-413.2762451171876	1143.299682617188	-1248.02001953125	-255.2393493652344	1033.709838867188	-1086.003784179688	-303.3519287109376	1010.329223632813	-1103.866943359375	-261.6068725585938	976.8026123046877	-1139.214965820313	-292.0195922851563	1396.55419921875	-751.5744628906251	-346.8447875976563	1264.495483398438	-615.5209350585939	-313.4747009277344	1226.986938476563	-611.0132446289064	-357.4199829101563	1207.60009765625	-573.9414672851564	-349.6458740234376	1138.21630859375	-549.8587036132814	-418.1291503906251	1119.945190429688	-605.7252197265626	-300.4337768554688	1003.151489257813	-743.2602539062501	-249.3543853759766	1028.281127929688	-751.4879760742189	-253.992904663086	973.7930297851565	-703.4321899414064	-216.3613433837891	944.8286132812502	-1034.041748046875	-204.6490936279297	942.4590454101565	-821.2100830078127	-375.0936279296876	1025.458984375	-918.2022705078127	-384.3052368164064	996.8654785156252	-945.8557739257815	-380.6796875000001	995.814880371094	-889.5556640625002	-309.9263610839844	797.3984985351565	-1096.866577148438	-292.2317199707032	714.6196899414064	-1094.9765625	-243.6104736328126	711.7687988281251	-1084.303833007813	-328.0253601074219	667.0573120117189	-1081.984741210938	-347.4302673339844	507.4146728515626	-1056.697387695313	-310.3866577148438	496.639129638672	-943.6413574218752	-316.8864746093751	361.8124084472657	-995.1806640625002	-343.3278808593751	311.7016296386719	-1063.326293945313	-313.4798278808594	313.2249145507813	-1028.466674804688	-325.8994445800782	235.0573272705079	-998.281677246094	-385.5109863281251	109.9587783813477	-1052.57666015625	-354.6163940429688	119.8889312744141	-974.197448730469	-441.851287841797	96.97553253173831	-1006.636901855469	-240.2556610107422	53.45020675659181	-993.5300903320315	-235.3230743408204	50.6603126525879	-1032.323120117188	-259.9249267578126	44.80519104003907	-1082.53564453125	-315.1746215820313	701.0587768554689	-759.3211059570314	-282.5973510742188	642.2582397460939	-757.2070312500001	-248.3527526855469	642.6826782226564	-762.9175415039064	-314.0980834960938	567.5727539062501	-773.8936767578127	-322.6667480468751	507.2619018554689	-780.9355468750002	-284.1540527343751	499.5809631347657	-893.9770507812502	-285.8168945312501	374.7659301757813	-796.5457763671877	-357.3384094238282	295.0231018066407	-779.1798095703127	-310.5991210937501	291.7210083007813	-783.5860595703127	-293.8047485351563	245.7894439697266	-815.3950195312502	-356.5226135253907	109.1053314208985	-790.6751098632815	-327.8647766113282	119.3602981567383	-871.4602050781252	-410.2972412109376	92.24136352539064	-835.697448730469	-209.476791381836	51.67453765869142	-845.5982055664065	-206.3416748046876	52.01680374145509	-800.8333129882815	-238.2373199462891	36.14313888549805	-748.7490234375001	
